<?xml version="1.0" encoding="UTF-8"?><svg xmlns="http://www.w3.org/2000/svg" viewBox="0 0 26.35 48.22"><defs><style>.d{fill:#68f3fb;}.e{fill:#fff;}.f{fill:#0863b4;}.g{fill:#69cafb;}.h{fill:#022e90;}.i{fill:#29bbf1;}.j{fill:#0b8eed;}.k{fill:#02237d;}</style></defs><g id="a"/><g id="b"><g id="c"><g><g><polygon class="d" points="13.18 13.51 6 11.57 5.78 12.08 .05 24.77 13.18 27.69 13.18 13.51"/><polygon class="f" points="13.18 48.22 13.18 42.34 5.82 45.95 13.18 48.22"/><polygon class="g" points="13.18 0 6 11.57 13.18 13.51 13.18 0"/><polygon class="f" points="0 36.73 0 36.76 5.78 45.93 5.82 45.95 13.18 42.34 13.18 34.39 0 36.73"/><polygon class="i" points="13.18 27.69 .05 24.77 0 24.88 0 36.73 13.18 34.39 13.18 27.69"/></g><g><polygon class="j" points="13.18 13.51 20.35 11.57 20.57 12.08 26.3 24.77 13.18 27.69 13.18 13.51"/><polygon class="k" points="13.18 48.22 13.18 42.34 20.53 45.95 13.18 48.22"/><polygon class="i" points="13.18 0 20.35 11.57 13.18 13.51 13.18 0"/><polygon class="h" points="26.35 36.73 26.35 36.76 20.57 45.93 20.53 45.95 13.18 42.34 13.18 34.39 26.35 36.73"/><polygon class="f" points="13.18 27.69 26.3 24.77 26.35 24.88 26.35 36.73 13.18 34.39 13.18 27.69"/></g></g><path class="e" d="M11.44,28.3c0,.62-.11,1.18-.34,1.69-.22,.51-.52,.95-.89,1.31-.37,.37-.8,.65-1.29,.85-.49,.2-1,.3-1.53,.3-.59,0-1.13-.1-1.62-.3-.49-.2-.92-.49-1.27-.85-.36-.37-.64-.8-.84-1.31-.2-.51-.3-1.07-.3-1.69s.1-1.22,.3-1.74c.2-.52,.48-.97,.84-1.34,.36-.37,.78-.66,1.27-.86,.49-.2,1.03-.31,1.62-.31s1.13,.1,1.63,.31c.5,.2,.93,.49,1.29,.86,.36,.37,.64,.82,.84,1.34,.2,.52,.3,1.1,.3,1.74Zm5.3-3.56c.12-.13,.26-.25,.43-.37,.17-.11,.41-.17,.71-.17h2.62L7.78,40.58c-.12,.15-.26,.27-.43,.37-.17,.1-.38,.14-.63,.14h-2.69l12.72-16.34Zm-8.06,3.56c0-.39-.03-.72-.1-.98-.07-.26-.16-.46-.27-.62-.12-.15-.25-.26-.41-.32-.16-.06-.33-.09-.52-.09s-.36,.03-.51,.09c-.15,.06-.29,.17-.39,.32-.11,.16-.19,.36-.25,.62-.06,.26-.09,.58-.09,.98,0,.37,.03,.68,.09,.93,.06,.25,.15,.44,.25,.59,.11,.15,.24,.25,.39,.31,.15,.06,.32,.09,.51,.09s.36-.03,.52-.09c.16-.06,.29-.17,.41-.31,.12-.15,.21-.34,.27-.59,.07-.25,.1-.56,.1-.93Zm12.46,8.83c0,.62-.11,1.18-.34,1.7-.22,.51-.52,.95-.89,1.32-.37,.37-.8,.65-1.29,.85-.49,.2-1,.3-1.53,.3-.59,0-1.13-.1-1.62-.3-.49-.2-.91-.48-1.27-.85-.36-.37-.64-.81-.84-1.32-.2-.51-.3-1.08-.3-1.7s.1-1.22,.3-1.74c.2-.52,.48-.97,.84-1.34,.36-.37,.78-.66,1.27-.86,.49-.2,1.03-.31,1.62-.31s1.13,.1,1.63,.31c.5,.21,.93,.49,1.29,.86,.36,.37,.64,.82,.84,1.34,.2,.52,.3,1.1,.3,1.74Zm-2.76,0c0-.39-.03-.71-.1-.97-.07-.26-.16-.46-.27-.62-.12-.15-.25-.26-.41-.32-.16-.06-.33-.09-.52-.09s-.35,.03-.51,.09c-.15,.06-.29,.17-.39,.32-.11,.15-.19,.36-.25,.62-.06,.26-.09,.58-.09,.97s.03,.68,.09,.93c.06,.25,.15,.44,.25,.59,.11,.15,.24,.25,.39,.31,.15,.06,.32,.09,.51,.09s.36-.03,.52-.09c.16-.06,.3-.17,.41-.31,.12-.15,.21-.34,.27-.59,.07-.25,.1-.56,.1-.93Z"/></g></g></svg>