<?xml version="1.0" encoding="UTF-8"?><svg xmlns="http://www.w3.org/2000/svg" viewBox="0 0 25.23 52.69"><defs><style>.d{fill:#f68;}.e{fill:#0863b4;}.f{fill:#ff3d6a;}.g{fill:#920b5a;}.h{fill:#d23c7b;}.i{fill:#8f075c;}.j{fill:#fe456f;}.k{fill:#f78759;}.l{fill:#d53688;}.m{fill:#9a0c58;}.n{fill:#c6226b;}.o{fill:#dc367e;}.p{fill:#ff6257;}.q{fill:#ff8157;}.r{fill:#da3e7f;}.s{fill:#e24481;}</style></defs><g id="a"/><g id="b"><g id="c"><g><g><g><g><polygon class="d" points="14.14 29.91 14.14 29.91 18.49 28.07 18.49 16.34 14.14 17.74 14.14 29.91"/><path class="r" d="M14.14,17.74l4.35-1.4v-5.97c-1.24-.09-2.75-.2-4.35-.32v7.69Z"/><path class="k" d="M14.14,10.05c1.59,.12,3.11,.23,4.35,.32V3.09l-4.35,1.63v5.33Z"/><polygon class="o" points="14.14 4.69 14.14 4.72 18.49 3.09 18.49 3.05 12.62 0 12.62 5.13 14.14 4.69"/><polygon class="i" points="20.89 36.65 20.89 43.43 25.23 45.23 25.23 34.86 20.88 36.64 20.89 36.65"/><polygon class="j" points="20.89 43.5 16.04 48.34 15.98 48.34 17.82 52.69 17.84 52.69 25.23 45.3 25.23 45.23 20.89 43.43 20.89 43.5"/><polygon class="s" points="18.49 28.11 18.49 28.07 14.14 29.91 20.88 36.64 25.23 34.86 25.23 34.85 18.49 28.11"/><polygon class="n" points="9.2 48.34 7.37 52.67 7.39 52.69 17.82 52.69 15.98 48.34 9.2 48.34"/><polygon class="h" points="4.35 36.65 4.36 36.64 0 34.85 0 45.29 4.35 43.48 4.35 36.65"/><polygon class="p" points="11.09 4.69 12.62 5.13 12.62 0 6.74 3.05 6.74 3.09 11.09 4.72 11.09 4.69"/><polygon class="g" points="9.19 48.34 4.35 43.5 4.35 43.48 0 45.29 0 45.3 7.37 52.67 9.2 48.34 9.19 48.34"/><polygon class="m" points="11.09 29.9 11.09 29.9 6.74 28.07 6.74 28.1 0 34.85 0 34.85 4.36 36.64 11.09 29.9"/><path class="q" d="M11.09,4.72l-4.35-1.63v6.42c1.3,.09,2.8,.2,4.35,.31V4.72Z"/><path class="f" d="M11.09,9.83c-1.54-.11-3.05-.22-4.35-.31v10.61l4.35-1.4V9.83Z"/><polygon class="l" points="11.09 18.72 6.74 20.12 6.74 28.07 11.09 29.9 11.09 18.72"/><polygon class="g" points="12.7 40.03 7.41 37.92 7.41 42.08 7.57 42.23 12.7 40.03 12.7 40.03"/><polygon class="e" points="12.7 40.03 12.7 40.03 12.7 40.03 12.7 40.03"/><rect class="e" x="12.7" y="40.03" width="0" height="0"/><polygon class="h" points="10.43 34.75 7.41 37.76 7.41 37.92 12.7 40.03 10.43 34.75"/><polygon class="n" points="12.7 40.03 7.57 42.23 10.46 45.12 10.67 45.12 12.7 40.03 12.7 40.03"/><polygon class="j" points="10.67 45.12 14.77 45.12 14.85 45.04 12.7 40.03 10.67 45.12"/><polygon class="l" points="17.82 37.83 17.82 37.76 14.81 34.75 12.7 40.03 17.82 37.83"/><polygon class="d" points="10.43 34.75 12.7 40.03 12.7 40.03 12.7 40.03 14.81 34.75 14.77 34.72 10.46 34.72 10.43 34.75"/><polygon class="i" points="12.7 40.03 14.85 45.04 17.82 42.08 17.82 42.07 12.7 40.03 12.7 40.03"/><polygon class="s" points="12.7 40.03 17.82 42.07 17.82 37.83 12.7 40.03 12.7 40.03"/></g><rect class="f" x="18.49" y="6.46" width="5.5" height="2.75"/><rect class="r" x="18.49" y="12.52" width="5.5" height="2.75"/><rect class="i" x="18.49" y="18.58" width="5.5" height="2.75"/><rect class="m" x="18.49" y="24.64" width="5.5" height="2.75"/></g><polygon class="r" points="10.46 34.72 12.6 29.91 14.81 34.75 10.46 34.72"/></g><rect class="r" x="12.23" y="9.42" width=".72" height="22.09"/></g></g></g></svg>