<?xml version="1.0" encoding="UTF-8"?><svg xmlns="http://www.w3.org/2000/svg" viewBox="0 0 43.84 49.79"><defs><style>.d{fill:#3179a9;}.e{fill:#202d7c;}.f{fill:#4cad8e;}.g{fill:#6eb9bc;}.h{fill:#19619c;}.i{fill:#36b28d;}.j{fill:#54baaf;}.k{fill:#66c4c6;}</style></defs><g id="a"/><g id="b"><g id="c"><g><g><g><polygon class="j" points="0 49.79 6 49.79 6 44.68 0 42.45 0 49.79"/><polygon class="f" points="0 37.16 0 42.45 6 44.68 6 34 0 37.16"/><polygon class="k" points="6 0 0 0 0 9.18 6 5.67 6 0"/><polygon class="g" points="6 26.93 0 23.23 0 37.16 6 34 6 26.93"/><polygon class="i" points="6 5.67 0 9.18 0 23.23 6 26.93 6 5.67"/></g><g><polygon class="d" points="38.65 16.3 8.27 0 16.84 14.24 38.65 16.3"/><polygon class="e" points="16.84 14.24 8.27 26.93 38.65 16.3 16.84 14.24"/><polygon class="h" points="8.27 0 8.27 26.93 16.84 14.24 8.27 0"/></g></g><polygon class="e" points="21.56 24.09 21.56 26.48 43.84 25.66 21.56 24.09"/><polygon class="h" points="32.15 20.58 32.15 22.98 42.5 22.16 32.15 20.58"/><polygon class="g" points="21.56 2.61 21.56 .21 43.84 1.03 21.56 2.61"/><polygon class="i" points="32.15 6.11 32.15 3.72 42.5 4.54 32.15 6.11"/></g></g></g></svg>